<svg width="289" height="303" viewBox="0 0 289 303" fill="none" xmlns="http://www.w3.org/2000/svg">
<g filter="url(#filter0_i)">
<path d="M145.799 9.00304L269.171 81.5103L268.236 224.91L143.929 295.803L20.5578 223.295L21.4927 79.8955L145.799 9.00304Z" fill="#101010"/>
</g>
<path d="M146.306 8.14091L145.807 7.84755L145.304 8.13438L20.9973 79.0268L20.4965 79.3125L20.4928 79.889L19.5578 223.289L19.5541 223.865L20.0511 224.157L143.423 296.665L143.922 296.958L144.425 296.671L268.731 225.779L269.232 225.493L269.236 224.917L270.171 81.5169L270.174 80.9403L269.677 80.6482L146.306 8.14091Z" stroke="white" stroke-width="2"/>
<circle cx="144.864" cy="7" r="7" fill="white"/>
<circle cx="19.8643" cy="81" r="7" fill="white"/>
<circle cx="270.864" cy="81" r="7" fill="white"/>
<circle cx="18.8643" cy="226" r="7" fill="white"/>
<circle cx="144.864" cy="296" r="7" fill="white"/>
<circle cx="270.864" cy="226" r="7" fill="white"/>
<defs>
<filter id="filter0_i" x="18.0753" y="5.87161" width="253.578" height="297.062" filterUnits="userSpaceOnUse" color-interpolation-filters="sRGB">
<feFlood flood-opacity="0" result="BackgroundImageFix"/>
<feBlend mode="normal" in="SourceGraphic" in2="BackgroundImageFix" result="shape"/>
<feColorMatrix in="SourceAlpha" type="matrix" values="0 0 0 0 0 0 0 0 0 0 0 0 0 0 0 0 0 0 127 0" result="hardAlpha"/>
<feOffset dy="4"/>
<feGaussianBlur stdDeviation="9"/>
<feComposite in2="hardAlpha" operator="arithmetic" k2="-1" k3="1"/>
<feColorMatrix type="matrix" values="0 0 0 0 1 0 0 0 0 1 0 0 0 0 1 0 0 0 0.25 0"/>
<feBlend mode="normal" in2="shape" result="effect1_innerShadow"/>
</filter>
</defs>
</svg>
